<?xml version="1.0" standalone="no"?>
<!DOCTYPE svg PUBLIC "-//W3C//DTD SVG 20010904//EN"
 "http://www.w3.org/TR/2001/REC-SVG-20010904/DTD/svg10.dtd">
<svg version="1.0" xmlns="http://www.w3.org/2000/svg"
 width="666.000000pt" height="374.000000pt" viewBox="0 0 666.000000 374.000000"
 preserveAspectRatio="xMidYMid meet">
<metadata>
Created by potrace 1.16, written by Peter Selinger 2001-2019
</metadata>
<g transform="translate(0.000000,374.000000) scale(0.100000,-0.100000)"
fill="#000000" stroke="none">
<path d="M2127 2398 c-135 -110 -151 -120 -172 -110 -22 10 -40 -2 -219 -146
l-195 -157 0 -156 -1 -156 58 -23 c31 -12 230 -85 441 -161 211 -77 450 -164
530 -193 80 -30 254 -93 386 -141 132 -48 281 -102 330 -120 50 -19 149 -55
220 -80 72 -26 171 -62 220 -80 154 -56 161 -58 188 -51 25 6 70 42 141 114
18 17 36 32 41 32 4 0 20 12 35 28 15 15 51 47 80 72 30 25 71 61 92 80 20 19
63 58 94 85 31 28 75 67 98 88 22 21 61 55 85 75 24 20 61 54 83 75 22 20 42
37 45 37 3 0 20 15 38 33 110 107 135 131 135 125 0 -3 22 15 49 40 70 67 141
131 141 127 0 -2 13 9 28 23 70 67 131 122 136 122 10 0 136 126 136 135 0 6
-11 15 -25 22 -14 6 -23 8 -20 3 6 -9 -42 -23 -54 -16 -12 8 -10 -27 3 -43 7
-9 -1 -7 -19 5 -26 16 -28 16 -16 1 12 -15 11 -17 -9 -17 -16 0 -20 -4 -16
-15 4 -13 2 -14 -14 -5 -16 8 -20 8 -18 -2 2 -7 -2 -12 -9 -11 -7 2 -17 -7
-24 -18 -9 -17 -8 -20 2 -14 7 5 10 4 5 -3 -3 -6 -16 -9 -27 -7 -16 3 -24 -3
-32 -26 -7 -18 -17 -27 -25 -24 -7 2 -11 1 -8 -4 3 -4 -4 -17 -17 -27 -19 -16
-20 -16 -8 -1 12 15 12 17 -2 11 -14 -5 -17 5 -19 63 -2 40 -7 68 -14 68 -8 0
-104 -80 -168 -140 -6 -6 -46 -42 -90 -79 -66 -58 -80 -66 -88 -53 -5 9 -30
23 -56 31 -26 8 -112 38 -192 66 -80 28 -201 71 -270 95 -69 24 -227 80 -352
124 -125 44 -248 86 -272 92 -53 13 -43 20 -273 -173 l-152 -128 -113 41 c-62
22 -187 67 -278 99 -292 103 -420 152 -415 159 2 4 -1 8 -8 9 -25 1 -72 13
-77 19 -3 3 5 3 18 0 26 -6 30 14 7 33 -11 9 -18 10 -28 1 -16 -13 -27 -5 -27
20 0 23 20 35 30 19 5 -8 15 -10 26 -5 17 8 17 9 -3 12 -19 4 -23 11 -23 43 0
39 -16 55 -39 40 -8 -5 -11 -17 -7 -31 7 -23 6 -23 -6 -4 -15 24 -20 47 -8 40
5 -3 16 5 24 17 14 20 21 18 17 -4 0 -5 4 -8 10 -8 6 0 9 9 6 20 -3 10 -2 19
2 18 19 -2 24 4 11 13 -12 8 -9 9 10 5 14 -3 19 -3 13 0 -19 9 -16 21 8 27 16
4 18 3 8 -9 -6 -8 -8 -14 -3 -14 4 0 -3 -12 -17 -27 -17 -19 -19 -25 -7 -20
12 4 15 2 12 -8 -3 -8 -12 -11 -22 -7 -14 5 -14 4 -2 -9 19 -20 70 -24 70 -5
0 8 8 21 19 28 10 7 22 28 25 46 6 27 4 36 -16 52 -12 11 -25 19 -28 19 -3 0
-72 -55 -153 -121z"/>
</g>
</svg>
